<svg width="554" height="356" viewBox="0 0 554 356" fill="none" xmlns="http://www.w3.org/2000/svg">
<path d="M76.2533 355.034C23.744 357.889 -1.78515 326.619 0.926827 272.863C3.48295 222.197 31.1546 162.154 70.6514 111.944C60.1921 87.2492 47.3864 60.217 32.2344 30.8475L109.454 26.6494L123.246 58.5575C156.647 31.4779 192.67 13.4987 227.882 11.5843C279.773 8.76318 325.533 42.0143 315.447 144.234C344.153 51.4772 402.058 2.73123 460.096 0.192123C589.763 -5.62492 554.024 180.558 532.708 322.208L466.821 325.79C488.817 182.871 504.515 60.0123 442.739 63.3708C390.848 66.1919 333.963 180.198 328.085 333.333L253.337 337.396L259.135 222.47C264.497 116.194 258.71 72.1433 213.614 74.595C191.992 75.7705 167.276 89.4379 144.009 111.037C164.029 166.022 173.921 214.163 171.895 254.325C168.778 316.114 133.705 351.911 76.2533 355.034ZM66.4714 268.067C65.6297 284.75 71.3709 293.065 84.3438 292.359C97.3166 291.654 105.26 280.747 106.475 256.65C107.598 234.406 103.409 207.521 94.4972 176.58C78.8549 205.775 67.9988 237.791 66.4714 268.067Z" fill="#F1ECE8"/>
</svg>
