<svg width="647" height="380" viewBox="0 0 647 380" fill="none" xmlns="http://www.w3.org/2000/svg">
<path fill-rule="evenodd" clip-rule="evenodd" d="M106.559 62.2827C83.5705 50.9724 52.2925 57.5108 27.888 71.3842L0.0155255 22.3122C31.345 4.50215 83.9383 -11.7249 131.428 11.6399C149.698 20.6287 165.276 34.4472 177.73 53.4311C182.28 51.3083 186.923 49.4454 191.659 47.8564C243.629 30.4205 296.35 48.6843 346.105 95.5353C376.561 62.3291 421.307 28.0885 475.733 12.9354C547.224 -6.96897 630.851 7.41007 713.136 89.0146L673.442 129.091C604.331 60.5504 541.254 53.2779 490.87 67.3056C437.887 82.0567 394.223 121.809 370.666 154.461L326.617 156.557C277.024 100.062 238.249 91.7551 209.606 101.365C206.535 102.395 203.446 103.667 200.345 105.183C207.621 131.297 211.655 162.5 212.055 199.098C212.754 263.135 203.069 309.475 185.537 339.36C176.618 354.564 164.883 366.788 150.216 373.707C135.114 380.832 118.959 381.31 104.173 376.198C75.8823 366.417 56.9944 338.536 49.2021 308.011C41.0923 276.241 43.3972 237.21 61.0001 196.615C80.1581 152.433 103.6 113.901 131.676 86.2616C123.589 73.4199 114.585 66.2315 106.559 62.2827ZM152.007 148.82C138.435 167.059 125.186 190.39 112.739 219.095C99.6691 249.237 99.099 275.468 103.846 294.063C108.91 313.902 118.61 321.488 122.572 322.858C123.913 323.321 124.801 323.295 126.15 322.659C127.934 321.817 132.058 319.024 136.897 310.776C146.882 293.756 156.313 259.455 155.66 199.694C155.447 180.202 154.136 163.363 152.007 148.82Z" fill="white"/>
</svg>
